<svg width="75" height="105" viewBox="0 0 75 105" fill="none" xmlns="http://www.w3.org/2000/svg">
<path d="M55.8299 104.005H18.9693C14.0813 104.005 9.39351 102.063 5.93716 98.6066C2.48082 95.1502 0.539062 90.4624 0.539062 85.5744V81.8883C0.539062 73.0899 4.03422 64.6519 10.2556 58.4304C16.4771 52.209 24.9151 48.7139 33.7135 48.7139H41.0856C49.8841 48.7139 58.3221 52.209 64.5435 58.4304C70.765 64.6519 74.2601 73.0899 74.2601 81.8883V85.5744C74.2601 90.4624 72.3184 95.1502 68.862 98.6066C65.4057 102.063 60.7179 104.005 55.8299 104.005ZM33.7135 56.086C26.8703 56.086 20.3074 58.8044 15.4685 63.6433C10.6296 68.4822 7.91117 75.0451 7.91117 81.8883V85.5744C7.91117 88.5072 9.07622 91.3199 11.15 93.3937C13.2238 95.4675 16.0365 96.6326 18.9693 96.6326H55.8299C58.7627 96.6326 61.5753 95.4675 63.6492 93.3937C65.723 91.3199 66.888 88.5072 66.888 85.5744V81.8883C66.888 75.0451 64.1696 68.4822 59.3307 63.6433C54.4918 58.8044 47.9289 56.086 41.0856 56.086H33.7135Z" fill="#F8F8F8"/>
<path d="M37.3995 45.0279C33.0253 45.0279 28.7494 43.7308 25.1124 41.3007C21.4754 38.8705 18.6406 35.4164 16.9667 31.3752C15.2928 27.3339 14.8548 22.8871 15.7082 18.5969C16.5615 14.3068 18.6679 10.366 21.7609 7.27302C24.854 4.17999 28.7947 2.07362 33.0849 1.22026C37.375 0.366894 41.8218 0.804871 45.8631 2.4788C49.9043 4.15273 53.3584 6.98744 55.7886 10.6244C58.2187 14.2615 59.5158 18.5374 59.5158 22.9116C59.5158 28.7772 57.1857 34.4026 53.0381 38.5502C48.8905 42.6978 43.2651 45.0279 37.3995 45.0279ZM37.3995 8.1674C34.4834 8.1674 31.6328 9.03214 29.2081 10.6523C26.7834 12.2724 24.8936 14.5751 23.7777 17.2693C22.6617 19.9634 22.3697 22.928 22.9386 25.7881C23.5075 28.6482 24.9118 31.2753 26.9738 33.3373C29.0358 35.3994 31.663 36.8036 34.5231 37.3725C37.3832 37.9414 40.3477 37.6494 43.0419 36.5335C45.736 35.4175 48.0388 33.5277 49.6589 31.1031C51.279 28.6784 52.1437 25.8277 52.1437 22.9116C52.1437 19.0012 50.5903 15.251 47.8253 12.4859C45.0602 9.72081 41.3099 8.1674 37.3995 8.1674Z" fill="#F8F8F8"/>
</svg>
