<svg width="75" height="105" viewBox="0 0 75 105" fill="none" xmlns="http://www.w3.org/2000/svg">
<path d="M56.2302 104.005H19.3697C14.4817 104.005 9.7939 102.063 6.33755 98.6066C2.88121 95.1502 0.939453 90.4624 0.939453 85.5744V81.8883C0.939453 73.0899 4.43461 64.6519 10.656 58.4304C16.8775 52.209 25.3155 48.7139 34.1139 48.7139H41.486C50.2845 48.7139 58.7225 52.209 64.9439 58.4304C71.1653 64.6519 74.6605 73.0899 74.6605 81.8883V85.5744C74.6605 90.4624 72.7188 95.1502 69.2624 98.6066C65.8061 102.063 61.1183 104.005 56.2302 104.005ZM34.1139 56.086C27.2707 56.086 20.7078 58.8044 15.8689 63.6433C11.03 68.4822 8.31156 75.0451 8.31156 81.8883V85.5744C8.31156 88.5072 9.47661 91.3199 11.5504 93.3937C13.6242 95.4675 16.4369 96.6326 19.3697 96.6326H56.2302C59.1631 96.6326 61.9757 95.4675 64.0495 93.3937C66.1234 91.3199 67.2884 88.5072 67.2884 85.5744V81.8883C67.2884 75.0451 64.5699 68.4822 59.7311 63.6433C54.8922 58.8044 48.3292 56.086 41.486 56.086H34.1139Z" fill="black"/>
<path d="M37.7999 45.0279C33.4257 45.0279 29.1498 43.7308 25.5128 41.3007C21.8757 38.8705 19.041 35.4164 17.3671 31.3752C15.6932 27.3339 15.2552 22.8871 16.1086 18.5969C16.9619 14.3068 19.0683 10.366 22.1613 7.27302C25.2543 4.17999 29.1951 2.07362 33.4852 1.22026C37.7754 0.366894 42.2222 0.804871 46.2635 2.4788C50.3047 4.15273 53.7588 6.98744 56.189 10.6244C58.6191 14.2615 59.9162 18.5374 59.9162 22.9116C59.9162 28.7772 57.5861 34.4026 53.4385 38.5502C49.2909 42.6978 43.6655 45.0279 37.7999 45.0279V45.0279ZM37.7999 8.1674C34.8838 8.1674 32.0331 9.03214 29.6085 10.6523C27.1838 12.2724 25.294 14.5751 24.178 17.2693C23.0621 19.9634 22.7701 22.928 23.339 25.7881C23.9079 28.6482 25.3122 31.2753 27.3742 33.3373C29.4362 35.3994 32.0634 36.8036 34.9235 37.3725C37.7836 37.9414 40.7481 37.6494 43.4423 36.5335C46.1364 35.4175 48.4392 33.5277 50.0593 31.1031C51.6794 28.6784 52.5441 25.8277 52.5441 22.9116C52.5441 19.0012 50.9907 15.251 48.2256 12.4859C45.4606 9.72081 41.7103 8.1674 37.7999 8.1674Z" fill="black"/>
</svg>
