<svg width="216" height="99" viewBox="0 0 216 99" fill="none" xmlns="http://www.w3.org/2000/svg">
<path d="M65.4219 65.5847C64.94 65.5847 64.4236 65.4822 63.8727 65.2772C63.3219 65.0722 62.8744 64.8159 62.5301 64.5084C62.1858 64.1668 62.0137 63.7738 62.0137 63.3297C62.0137 63.2272 62.0309 63.0734 62.0654 62.8684L72.3416 29.6575C72.5482 29.0425 72.9785 28.5812 73.6326 28.2737C74.3211 27.9662 75.0441 27.8124 75.8014 27.8124C76.5932 27.8124 77.3162 27.9662 77.9703 28.2737C78.6588 28.5812 79.1064 29.0425 79.3129 29.6575L88.9444 60.9417L89.5375 62.8684C89.6064 63.0734 89.6408 63.2272 89.6408 63.3297C89.6408 63.6849 89.4986 64.0145 89.2143 64.3185C89.1705 64.3653 89.1233 64.4116 89.0728 64.4572C88.7285 64.7989 88.281 65.0722 87.7301 65.2772C87.2138 65.4822 86.6974 65.5847 86.181 65.5847C85.7334 65.5847 85.3375 65.4993 84.9933 65.3285C84.6834 65.1576 84.4596 64.8672 84.3219 64.4572L82.2047 57.1795H69.3981L67.3326 64.4572C67.2293 64.8672 66.9883 65.1576 66.6096 65.3285C66.2654 65.4993 65.8695 65.5847 65.4219 65.5847ZM70.6375 52.8231H80.9654L75.8014 35.2439L70.6375 52.8231Z" fill="#F8F8F8"/>
<path d="M96.2935 65.5847C95.5361 65.5847 94.8992 65.3968 94.3828 65.0209C94.2566 64.9225 94.1469 64.8217 94.0537 64.7186C93.7912 64.428 93.6599 64.1187 93.6599 63.7909V43.0341C93.6599 42.5216 93.9009 42.1116 94.3828 41.8041C94.5201 41.7132 94.6659 41.6345 94.8201 41.5678C95.2463 41.3836 95.7374 41.2915 96.2935 41.2915C96.982 41.2915 97.5673 41.4624 98.0493 41.8041C98.5312 42.1116 98.7722 42.5216 98.7722 43.0341V45.2891C99.1509 44.5716 99.6501 43.8883 100.27 43.2391C100.924 42.5899 101.681 42.0603 102.542 41.6503C103.403 41.2061 104.332 40.984 105.33 40.984H106.983C107.534 40.984 108.016 41.2232 108.429 41.7015C108.842 42.1457 109.048 42.6924 109.048 43.3416C109.048 43.9908 108.842 44.5545 108.429 45.0329C108.016 45.5112 107.534 45.7504 106.983 45.7504H105.33C104.298 45.7504 103.299 46.0579 102.335 46.6729C101.371 47.2879 100.58 48.1592 99.9599 49.2868C99.3747 50.3801 99.082 51.7127 99.082 53.2844V63.7909C99.082 64.2351 98.8066 64.6451 98.2558 65.0209C97.7394 65.3968 97.0853 65.5847 96.2935 65.5847Z" fill="#F8F8F8"/>
<path fill-rule="evenodd" clip-rule="evenodd" d="M89.5375 62.8684C89.6064 63.0734 89.6408 63.2272 89.6408 63.3297C89.6408 63.6849 89.4986 64.0145 89.2143 64.3185C89.5462 67.5633 90.0883 70.7087 90.8951 73.643C62.4987 76.4665 26.2798 63.8978 14.3398 55.8331L0 53.7246C12.2153 62.1584 27.6025 72.6323 45.6377 76.3475C65.822 80.499 81.288 81.2798 93.2771 80.0407C94.969 83.476 97.2228 86.3652 100.174 88.431C115.647 99.2475 145.418 102.296 159.732 91.1543C162.131 89.2905 164.387 87.3403 166.483 85.3303C167.011 85.7819 167.559 86.2017 168.128 86.586C181.04 95.3137 209.775 95.5665 214.172 95.0706C218.569 94.5747 204.3 90.9521 201.268 90.6505C193.52 89.8613 175.879 91.9443 168.485 83.3432L168.473 83.3552C174.213 77.4553 178.582 71.1311 181.2 65.0248C184.906 56.3821 185.107 48.1761 180.728 42.2277C180.695 42.183 180.662 42.1385 180.629 42.0941C175.714 35.5609 165.387 24.4099 155.617 38.785C153.258 42.2134 152.949 50.7695 152.949 50.7695C152.949 50.7695 153.875 61.8457 157.92 72.1148C158.016 72.0765 158.113 72.0352 158.21 71.9911C159.002 71.6836 159.759 71.1711 160.482 70.4536C161.074 69.92 161.592 69.2718 162.036 68.5091C160.383 62.5423 159.482 56.7375 159.116 54.0424L157.816 51.0806L154.802 44.2129C154.664 43.9737 154.596 43.7345 154.596 43.4954C154.596 43.0512 154.785 42.6412 155.164 42.2653C155.577 41.8553 156.059 41.5307 156.609 41.2915C157.16 41.0524 157.677 40.9328 158.159 40.9328C158.503 40.9328 158.83 41.0182 159.14 41.189C159.484 41.3257 159.708 41.5649 159.811 41.9066L160.733 44.2664C161.321 42.5202 162.071 40.8702 163.007 39.7586C168.177 33.4842 174.438 34.761 175.872 41.7936C175.913 41.9915 175.949 42.194 175.982 42.401C176.162 43.551 176.253 44.7592 176.259 46.0132C176.308 55.2352 171.8 66.9403 164.685 76.2553C164.445 75.6927 164.214 75.1182 163.991 74.5351C163.69 74.8224 163.369 75.0894 163.027 75.3362C162.728 75.5521 162.414 75.7526 162.083 75.9375C161.473 76.3038 160.789 76.5848 160.029 76.7803C160.567 77.8143 161.144 78.8184 161.762 79.7784C158.518 83.3734 154.864 86.4402 150.941 88.6234C137.51 96.1174 107.929 92.5141 99.7635 84.6777C98.5157 83.4825 97.5009 81.7513 96.6877 79.6216C115.414 76.9417 124.961 69.0971 130.944 62.1996C132.326 60.6065 133.518 59.0638 134.589 57.6471L134.651 57.5648C138.366 52.6076 139.975 42.5843 139.955 32.942C139.952 31.3159 139.902 29.7007 139.808 28.1223C139.326 19.9959 137.677 12.8493 135.174 10.2489C124.618 -0.800824 117.552 -1.00671 111.431 1.42148C101.848 5.24427 97.3922 12.2906 93.8058 20.2464C91.0211 26.4238 87.9338 43.7394 88.9444 60.9417L89.5375 62.8684ZM98.3793 23.7035C100.992 17.9067 110.713 0.852906 120.036 2.60687C128.071 4.11845 134.41 8.38669 129.772 33.6683C129.462 35.3577 129.103 37.1409 128.692 39.0233C128.117 41.6584 127.441 44.488 126.655 47.527C125.256 52.9343 122.883 57.3588 119.753 60.936C118.521 62.3447 117.172 63.6219 115.718 64.7761C110.1 69.2374 102.93 71.8592 94.9795 73.1194C94.5232 70.5293 94.2235 67.6898 94.0537 64.7186C93.7912 64.428 93.6599 64.1187 93.6599 63.7909V43.0341C93.6599 42.5216 93.9009 42.1116 94.3828 41.8041C94.5201 41.7132 94.6659 41.6345 94.8201 41.5678C95.713 33.3832 97.1039 26.5327 98.3793 23.7035Z" fill="#D43D65"/>
<path d="M111.533 57.5895C111.533 60.3571 112.308 62.39 113.857 63.6884C114.394 64.1271 115.015 64.4896 115.718 64.7761C117.172 63.6219 118.521 62.3447 119.753 60.936C118.836 60.8491 118.161 60.6048 117.73 60.2033C117.213 59.6908 116.955 58.8195 116.955 57.5895V45.2892H123.255C123.737 45.2892 124.099 45.0842 124.34 44.6741C124.615 44.2641 124.753 43.8029 124.753 43.2904C124.753 42.7778 124.615 42.3166 124.34 41.9066C124.099 41.4966 123.737 41.2915 123.255 41.2915H116.955V31.9125C116.955 31.4 116.663 30.99 116.077 30.6825C115.492 30.3408 114.872 30.17 114.218 30.17C113.564 30.17 112.945 30.3408 112.359 30.6825C111.808 30.99 111.533 31.4 111.533 31.9125V57.5895Z" fill="#F8F8F8"/>
<path d="M134.315 64.7647C136.071 65.5164 138.05 65.8922 140.253 65.8922C142.422 65.8922 144.385 65.5164 146.14 64.7647C147.896 64.013 149.29 62.8001 150.323 61.1258C151.356 59.4516 151.872 57.2307 151.872 54.4632V47.7492C151.872 47.2367 151.717 46.8096 151.408 46.4679C151.098 46.0921 150.65 45.9042 150.065 45.9042H141.183C140.632 45.9042 140.202 46.1434 139.892 46.6217C139.582 47.0659 139.427 47.5442 139.427 48.0567C139.427 48.6376 139.582 49.1501 139.892 49.5943C140.202 50.0385 140.632 50.2605 141.183 50.2605H146.399V54.4632C146.399 56.7182 145.848 58.3924 144.746 59.4858C143.644 60.545 142.147 61.0746 140.253 61.0746C138.326 61.0746 136.811 60.545 135.709 59.4858C135.227 58.9916 134.853 58.3787 134.589 57.6471C133.518 59.0638 132.326 60.6065 130.944 62.1996C131.863 63.3295 132.986 64.1845 134.315 64.7647Z" fill="#5897DB"/>
<path d="M146.244 29.2987C144.488 28.5129 142.44 28.1199 140.099 28.1199C140.001 28.1199 139.905 28.1207 139.808 28.1223C139.902 29.7007 139.952 31.3159 139.955 32.942C140.053 32.9391 140.153 32.9376 140.253 32.9376C141.768 32.9376 142.956 33.1938 143.817 33.7063C144.677 34.1847 145.297 34.851 145.676 35.7051C146.054 36.5252 146.295 37.4306 146.399 38.4215C146.433 39.1048 146.708 39.5832 147.225 39.8565C147.776 40.0957 148.412 40.2153 149.135 40.2153C150.031 40.2153 150.702 40.0444 151.149 39.7028C151.631 39.3269 151.872 38.6265 151.872 37.6015C151.872 35.6539 151.373 33.9797 150.375 32.5788C149.376 31.1779 147.999 30.0846 146.244 29.2987Z" fill="#5897DB"/>
<path d="M128.692 39.0233C128.743 36.8994 129.103 35.1144 129.772 33.6683C129.462 35.3577 129.103 37.1409 128.692 39.0233Z" fill="#5897DB"/>
<path d="M155.37 76.655C155.852 76.9625 156.437 77.1163 157.126 77.1163C158.192 77.1163 159.16 77.0043 160.029 76.7803C160.789 76.5848 161.473 76.3038 162.083 75.9375C162.414 75.7526 162.728 75.5521 163.027 75.3362C163.369 75.0894 163.69 74.8224 163.991 74.5351C164.497 74.0519 164.946 73.5114 165.337 72.9137C166.197 71.6495 166.92 70.2486 167.505 68.7111C168.091 67.2077 168.659 65.7214 169.209 64.2522L176.259 46.0132C176.253 44.7592 176.162 43.551 175.982 42.401C175.949 42.194 175.913 41.9915 175.872 41.7936C175.591 41.5976 175.281 41.4302 174.941 41.2915C174.391 41.0524 173.909 40.9328 173.496 40.9328C173.186 40.9328 172.876 41.0182 172.566 41.189C172.256 41.3257 172.05 41.5649 171.946 41.9066L166.318 58.5633L161.453 46.1092L160.733 44.2664L159.811 41.9066C159.708 41.5649 159.484 41.3257 159.14 41.189C158.83 41.0182 158.503 40.9328 158.159 40.9328C157.677 40.9328 157.16 41.0524 156.609 41.2915C156.059 41.5307 155.577 41.8553 155.164 42.2653C154.785 42.6412 154.596 43.0512 154.596 43.4954C154.596 43.7345 154.664 43.9737 154.802 44.2129L157.816 51.0806L159.116 54.0424L159.811 55.6265L163.529 64.0984C163.323 65.5335 162.944 66.7806 162.393 67.8398C162.28 68.0719 162.161 68.295 162.036 68.5091C161.592 69.2718 161.074 69.92 160.482 70.4536C159.759 71.1711 159.002 71.6836 158.21 71.9911C158.113 72.0352 158.016 72.0765 157.92 72.1148C157.272 72.3741 156.663 72.5037 156.093 72.5037C155.542 72.5037 155.164 72.7257 154.957 73.1699C154.75 73.6483 154.647 74.195 154.647 74.81C154.647 75.7667 154.888 76.3817 155.37 76.655Z" fill="#5897DB"/>
<path d="M183.157 41.2915C182.366 41.2915 181.711 41.4624 181.195 41.8041C181 41.9285 180.844 42.0697 180.728 42.2277C185.107 48.1761 184.906 56.3821 181.2 65.0248C181.716 65.3981 182.368 65.5847 183.157 65.5847C183.915 65.5847 184.552 65.3968 185.068 65.021C185.619 64.6451 185.894 64.2351 185.894 63.7909V51.0806C185.894 49.9189 186.118 48.9451 186.566 48.1592C187.048 47.3734 187.65 46.7754 188.373 46.3654C189.13 45.9554 189.905 45.7504 190.697 45.7504C191.557 45.7504 192.349 45.9725 193.072 46.4167C193.795 46.8267 194.38 47.4246 194.828 48.2105C195.275 48.9963 195.499 49.936 195.499 51.0293V63.8422C195.499 64.4572 195.792 64.9014 196.377 65.1747C196.962 65.448 197.565 65.5847 198.184 65.5847C198.873 65.5847 199.493 65.448 200.043 65.1747C200.629 64.9014 200.921 64.4572 200.921 63.8422V50.9781C200.921 49.8505 201.162 48.9109 201.644 48.1592C202.126 47.3734 202.729 46.7754 203.452 46.3654C204.175 45.9213 204.949 45.6992 205.775 45.6992C206.567 45.6992 207.325 45.9042 208.048 46.3142C208.805 46.7242 209.407 47.3392 209.855 48.1592C210.337 48.9451 210.578 49.9189 210.578 51.0806V63.7909C210.578 64.2351 210.836 64.6451 211.352 65.021C211.903 65.3968 212.54 65.5847 213.263 65.5847C214.02 65.5847 214.657 65.3968 215.174 65.021C215.725 64.6451 216 64.2351 216 63.7909V51.0806C216 48.928 215.57 47.1 214.709 45.5967C213.848 44.0933 212.729 42.9487 211.352 42.1628C210.01 41.377 208.564 40.984 207.015 40.984C205.534 40.984 204.088 41.4111 202.677 42.2653C201.266 43.0854 200.112 44.3666 199.217 46.1092C198.632 44.6058 197.737 43.3758 196.532 42.4191C195.361 41.4624 194.002 40.984 192.452 40.984C190.731 40.984 189.302 41.3941 188.166 42.2141C187.03 42.9999 186.17 43.8883 185.584 44.8792V43.0341C185.584 42.5216 185.343 42.1116 184.861 41.8041C184.379 41.4624 183.811 41.2915 183.157 41.2915Z" fill="#5897DB"/>
</svg>
