<svg width="156" height="71" viewBox="0 0 156 71" fill="none" xmlns="http://www.w3.org/2000/svg">
<path d="M47.2492 47.3943C46.9011 47.3943 46.5281 47.32 46.1303 47.1715C45.7325 47.023 45.4093 46.8373 45.1606 46.6145C44.912 46.367 44.7877 46.0823 44.7877 45.7605C44.7877 45.6863 44.8001 45.5749 44.825 45.4263L52.2467 21.3654C52.3959 20.9198 52.7067 20.5856 53.1791 20.3628C53.6764 20.1401 54.1985 20.0287 54.7455 20.0287C55.3173 20.0287 55.8395 20.1401 56.3119 20.3628C56.8092 20.5856 57.1324 20.9198 57.2816 21.3654L64.2376 44.0305L64.666 45.4263C64.7157 45.5749 64.7406 45.6863 64.7406 45.7605C64.7406 46.0179 64.6379 46.2567 64.4326 46.4769C64.4009 46.5109 64.3669 46.5444 64.3303 46.5774C64.0817 46.825 63.7585 47.023 63.3607 47.1715C62.9877 47.32 62.6148 47.3943 62.2418 47.3943C61.9186 47.3943 61.6327 47.3324 61.384 47.2086C61.1603 47.0849 60.9986 46.8745 60.8992 46.5774L59.3701 41.3048H50.1209L48.6291 46.5774C48.5545 46.8745 48.3805 47.0849 48.107 47.2086C47.8583 47.3324 47.5724 47.3943 47.2492 47.3943ZM51.016 38.1487H58.475L54.7455 25.4127L51.016 38.1487Z" fill="#5897DB"/>
<path d="M69.5453 47.3943C68.9983 47.3943 68.5383 47.2581 68.1654 46.9858C68.0742 46.9145 67.995 46.8415 67.9277 46.7668C67.7381 46.5562 67.6433 46.3322 67.6433 46.0947V31.0566C67.6433 30.6853 67.8173 30.3882 68.1654 30.1654C68.2645 30.0997 68.3698 30.0426 68.4812 29.9943C68.789 29.8609 69.1437 29.7941 69.5453 29.7941C70.0426 29.7941 70.4653 29.9179 70.8134 30.1654C71.1614 30.3882 71.3355 30.6853 71.3355 31.0566V32.6904C71.609 32.1705 71.9695 31.6754 72.417 31.2051C72.8895 30.7348 73.4364 30.3511 74.058 30.0541C74.6796 29.7323 75.3509 29.5714 76.072 29.5714H77.2654C77.6632 29.5714 78.0113 29.7446 78.3097 30.0912C78.608 30.413 78.7572 30.8091 78.7572 31.2794C78.7572 31.7497 78.608 32.1582 78.3097 32.5047C78.0113 32.8513 77.6632 33.0245 77.2654 33.0245H76.072C75.3261 33.0245 74.605 33.2473 73.9088 33.6929C73.2127 34.1385 72.6408 34.7697 72.1933 35.5866C71.7706 36.3787 71.5592 37.3441 71.5592 38.4828V46.0947C71.5592 46.4165 71.3603 46.7136 70.9625 46.9858C70.5896 47.2581 70.1172 47.3943 69.5453 47.3943Z" fill="#5897DB"/>
<path fill-rule="evenodd" clip-rule="evenodd" d="M64.666 45.4263C64.7157 45.5749 64.7406 45.6863 64.7406 45.7605C64.7406 46.0179 64.6379 46.2567 64.4326 46.4769C64.6723 48.8277 65.0638 51.1066 65.6464 53.2324C45.138 55.278 18.9798 46.1722 10.3565 40.3293L0 38.8018C8.82216 44.912 19.9351 52.5002 32.9605 55.1918C47.5381 58.1995 58.708 58.7652 67.3668 57.8675C68.5887 60.3563 70.2165 62.4496 72.3476 63.9462C83.5232 71.7826 105.024 73.9909 115.362 65.9192C117.095 64.5689 118.724 63.156 120.238 61.6998C120.619 62.027 121.015 62.3311 121.425 62.6095C130.751 68.9326 151.504 69.1158 154.68 68.7565C157.856 68.3973 147.55 65.7727 145.36 65.5542C139.765 64.9824 127.024 66.4916 121.684 60.2601L121.675 60.2688C125.821 55.9944 128.976 51.4126 130.867 46.9887C133.544 40.7271 133.688 34.7819 130.526 30.4723C130.502 30.44 130.478 30.4077 130.454 30.3756C126.905 25.6423 119.446 17.5636 112.39 27.9782C110.686 30.462 110.463 36.6609 110.463 36.6609C110.463 36.6609 111.132 44.6854 114.053 52.1253C114.122 52.0975 114.192 52.0676 114.263 52.0357C114.835 51.8129 115.382 51.4416 115.904 50.9218C116.331 50.5352 116.705 50.0656 117.026 49.513C115.832 45.1901 115.181 40.9846 114.917 39.032L113.978 36.8862L111.801 31.9106C111.702 31.7373 111.652 31.5641 111.652 31.3908C111.652 31.069 111.789 30.7719 112.063 30.4996C112.361 30.2026 112.709 29.9674 113.107 29.7941C113.505 29.6209 113.878 29.5342 114.226 29.5342C114.474 29.5342 114.711 29.5961 114.934 29.7199C115.183 29.8189 115.345 29.9922 115.419 30.2397L116.085 31.9494C116.51 30.6843 117.051 29.4889 117.728 28.6836C121.461 24.1378 125.983 25.0629 127.019 30.1579C127.048 30.3013 127.075 30.448 127.098 30.5979C127.228 31.4311 127.294 32.3064 127.299 33.215C127.334 39.8962 124.078 48.3764 118.939 55.1251C118.766 54.7174 118.599 54.3012 118.438 53.8787C118.221 54.0869 117.989 54.2803 117.742 54.4591C117.526 54.6156 117.299 54.7608 117.06 54.8948C116.62 55.1602 116.125 55.3637 115.577 55.5054C115.965 56.2545 116.382 56.9819 116.828 57.6775C114.485 60.282 111.846 62.5039 109.013 64.0856C99.3128 69.515 77.9488 66.9044 72.0514 61.227C71.1502 60.361 70.4173 59.1068 69.83 57.5639C83.3548 55.6223 90.2497 49.939 94.5709 44.9418C95.569 43.7876 96.4298 42.67 97.2032 41.6436L97.2481 41.584C99.9314 37.9925 101.093 30.7307 101.079 23.745C101.076 22.5669 101.04 21.3967 100.973 20.2532C100.624 14.3656 99.4332 9.18804 97.6256 7.30403C90.0022 -0.70135 84.8988 -0.850513 80.478 0.908685C73.557 3.67826 70.3388 8.78325 67.7487 14.5471C65.7375 19.0226 63.5078 31.5676 64.2376 44.0305L64.666 45.4263ZM71.0517 17.0518C72.939 12.8521 79.9591 0.496761 86.6926 1.76749C92.4956 2.86261 97.0742 5.95491 93.7243 24.2712C93.5004 25.4951 93.2412 26.787 92.9445 28.1509C92.5293 30.0599 92.0407 32.1099 91.4734 34.3117C90.463 38.2292 88.7487 41.4347 86.4886 44.0264C85.5986 45.0469 84.6239 45.9723 83.5743 46.8085C79.5168 50.0406 74.3386 51.9401 68.5963 52.8531C68.2667 50.9766 68.0503 48.9194 67.9277 46.7668C67.7381 46.5562 67.6433 46.3322 67.6433 46.0947V31.0566C67.6433 30.6853 67.8173 30.3882 68.1654 30.1654C68.2645 30.0997 68.3698 30.0426 68.4812 29.9943C69.126 24.0647 70.1306 19.1015 71.0517 17.0518Z" fill="#D43D65"/>
<path d="M80.5517 41.6018C80.5517 43.6069 81.1111 45.0798 82.23 46.0204C82.6182 46.3383 83.0663 46.6009 83.5743 46.8085C84.6239 45.9723 85.5986 45.0469 86.4886 44.0264C85.8259 43.9634 85.3388 43.7864 85.0271 43.4955C84.6541 43.1242 84.4677 42.493 84.4677 41.6018V32.6904H89.0177C89.3658 32.6904 89.6268 32.5419 89.8009 32.2448C89.9998 31.9478 90.0992 31.6136 90.0992 31.2423C90.0992 30.871 89.9998 30.5368 89.8009 30.2397C89.6268 29.9427 89.3658 29.7941 89.0177 29.7941H84.4677V22.9992C84.4677 22.6278 84.2563 22.3308 83.8336 22.108C83.411 21.8605 82.9634 21.7367 82.491 21.7367C82.0186 21.7367 81.5711 21.8605 81.1484 22.108C80.7506 22.3308 80.5517 22.6278 80.5517 22.9992V41.6018Z" fill="#5897DB"/>
<path d="M97.0052 46.8002C98.2733 47.3448 99.7029 47.6171 101.294 47.6171C102.861 47.6171 104.278 47.3448 105.546 46.8002C106.814 46.2556 107.821 45.3768 108.567 44.1639C109.313 42.9509 109.686 41.3419 109.686 39.3368V34.4727C109.686 34.1014 109.574 33.7919 109.35 33.5444C109.126 33.2721 108.803 33.136 108.38 33.136H101.965C101.568 33.136 101.257 33.3092 101.033 33.6558C100.809 33.9776 100.697 34.3241 100.697 34.6955C100.697 35.1163 100.809 35.4876 101.033 35.8094C101.257 36.1312 101.568 36.2921 101.965 36.2921H105.732V39.3368C105.732 40.9706 105.334 42.1836 104.539 42.9757C103.743 43.7431 102.662 44.1268 101.294 44.1268C99.9018 44.1268 98.8078 43.7431 98.0122 42.9757C97.6638 42.6176 97.3941 42.1736 97.2032 41.6436C96.4298 42.67 95.569 43.7876 94.5709 44.9418C95.2342 45.7604 96.0457 46.3798 97.0052 46.8002Z" fill="#1F487E"/>
<path d="M105.62 21.1055C104.352 20.5361 102.873 20.2515 101.182 20.2515C101.112 20.2515 101.042 20.252 100.973 20.2532C101.04 21.3967 101.076 22.5669 101.079 23.745C101.15 23.7429 101.222 23.7418 101.294 23.7418C102.388 23.7418 103.246 23.9274 103.868 24.2987C104.489 24.6453 104.937 25.128 105.21 25.7469C105.484 26.341 105.658 26.9969 105.732 27.7148C105.757 28.2099 105.956 28.5564 106.329 28.7545C106.727 28.9278 107.187 29.0144 107.709 29.0144C108.355 29.0144 108.84 28.8906 109.163 28.6431C109.512 28.3708 109.686 27.8633 109.686 27.1207C109.686 25.7097 109.325 24.4968 108.604 23.4819C107.883 22.4669 106.888 21.6748 105.62 21.1055Z" fill="#1F487E"/>
<path d="M92.9445 28.1509C92.9809 26.6121 93.2408 25.3189 93.7243 24.2712C93.5004 25.4951 93.2412 26.787 92.9445 28.1509Z" fill="#1F487E"/>
<path d="M112.212 55.4146C112.56 55.6374 112.983 55.7488 113.48 55.7488C114.25 55.7488 114.949 55.6677 115.577 55.5054C116.125 55.3637 116.62 55.1602 117.06 54.8948C117.299 54.7608 117.526 54.6156 117.742 54.4591C117.989 54.2803 118.221 54.0869 118.438 53.8787C118.804 53.5287 119.128 53.1371 119.41 52.7041C120.031 51.7882 120.553 50.7732 120.976 49.6593C121.399 48.5701 121.809 47.4933 122.207 46.4289L127.299 33.215C127.294 32.3064 127.228 31.4311 127.098 30.5979C127.075 30.448 127.048 30.3013 127.019 30.1579C126.816 30.0158 126.592 29.8946 126.347 29.7941C125.949 29.6209 125.601 29.5342 125.302 29.5342C125.079 29.5342 124.855 29.5961 124.631 29.7199C124.407 29.8189 124.258 29.9922 124.183 30.2397L120.118 42.3073L116.605 33.2845L116.085 31.9494L115.419 30.2397C115.345 29.9922 115.183 29.8189 114.934 29.7199C114.711 29.5961 114.474 29.5342 114.226 29.5342C113.878 29.5342 113.505 29.6209 113.107 29.7941C112.709 29.9674 112.361 30.2026 112.063 30.4996C111.789 30.7719 111.652 31.069 111.652 31.3908C111.652 31.5641 111.702 31.7373 111.801 31.9106L113.978 36.8862L114.917 39.032L115.419 40.1796L118.104 46.3175C117.955 47.3572 117.682 48.2607 117.284 49.0281C117.202 49.1963 117.116 49.3579 117.026 49.513C116.705 50.0656 116.331 50.5352 115.904 50.9218C115.382 51.4416 114.835 51.8129 114.263 52.0357C114.192 52.0676 114.122 52.0975 114.053 52.1253C113.585 52.3131 113.145 52.407 112.734 52.407C112.336 52.407 112.063 52.5679 111.913 52.8897C111.764 53.2363 111.69 53.6323 111.69 54.0779C111.69 54.771 111.864 55.2166 112.212 55.4146Z" fill="#1F487E"/>
<path d="M132.28 29.7941C131.708 29.7941 131.236 29.9179 130.863 30.1655C130.722 30.2556 130.61 30.3579 130.526 30.4723C133.688 34.7819 133.544 40.7271 130.867 46.9887C131.239 47.2591 131.71 47.3943 132.28 47.3943C132.827 47.3943 133.287 47.2581 133.66 46.9859C134.058 46.7136 134.257 46.4165 134.257 46.0947V36.8862C134.257 36.0446 134.419 35.3391 134.742 34.7697C135.09 34.2004 135.525 33.7672 136.047 33.4701C136.594 33.1731 137.154 33.0246 137.725 33.0246C138.347 33.0246 138.919 33.1855 139.441 33.5073C139.963 33.8043 140.386 34.2375 140.709 34.8069C141.032 35.3762 141.194 36.0569 141.194 36.8491V46.1318C141.194 46.5774 141.405 46.8992 141.828 47.0973C142.251 47.2953 142.686 47.3943 143.133 47.3943C143.63 47.3943 144.078 47.2953 144.476 47.0973C144.898 46.8992 145.11 46.5774 145.11 46.1318V36.8119C145.11 35.995 145.284 35.3143 145.632 34.7697C145.98 34.2004 146.415 33.7672 146.937 33.4701C147.459 33.1483 148.019 32.9874 148.616 32.9874C149.187 32.9874 149.734 33.1359 150.257 33.433C150.804 33.73 151.239 34.1756 151.562 34.7697C151.91 35.3391 152.084 36.0446 152.084 36.8862V46.0947C152.084 46.4165 152.27 46.7136 152.643 46.9859C153.041 47.2581 153.501 47.3943 154.023 47.3943C154.57 47.3943 155.03 47.2581 155.403 46.9859C155.801 46.7136 156 46.4165 156 46.0947V36.8862C156 35.3267 155.689 34.0023 155.068 32.9132C154.446 31.824 153.638 30.9947 152.643 30.4254C151.674 29.856 150.63 29.5714 149.511 29.5714C148.442 29.5714 147.397 29.8808 146.378 30.4996C145.358 31.0937 144.526 32.022 143.879 33.2845C143.456 32.1953 142.81 31.3041 141.94 30.611C141.094 29.9179 140.112 29.5714 138.993 29.5714C137.75 29.5714 136.718 29.8684 135.898 30.4625C135.077 31.0319 134.456 31.6755 134.033 32.3933V31.0566C134.033 30.6853 133.859 30.3882 133.511 30.1655C133.163 29.9179 132.753 29.7941 132.28 29.7941Z" fill="#1F487E"/>
</svg>
