<svg width="1920" height="2728" viewBox="0 0 1920 2728" fill="none" xmlns="http://www.w3.org/2000/svg">
<circle cx="415" cy="2532" r="196" fill="#5897DB"/>
<circle cx="213.5" cy="2001.5" r="589.5" stroke="#D43D65" stroke-opacity="0.3" stroke-width="10"/>
<circle cx="973" cy="2346" r="363" stroke="#1F487E" stroke-opacity="0.7" stroke-width="10"/>
<circle cx="1649.45" cy="96.574" r="488" transform="rotate(-9.12778 1649.45 96.574)" fill="#5897DB"/>
<circle cx="1195.78" cy="423.3" r="647.995" transform="rotate(-9.12778 1195.78 423.3)" fill="#5897DB" fill-opacity="0.8"/>
<circle cx="1756" cy="802.51" r="488" transform="rotate(-9.12778 1756 802.51)" fill="#1F487E"/>
<circle cx="816" cy="116" r="360" stroke="#5897DB" stroke-opacity="0.5" stroke-width="10"/>
<circle cx="321.5" cy="491.5" r="147.5" stroke="#5897DB" stroke-opacity="0.3" stroke-width="10"/>
<path fill-rule="evenodd" clip-rule="evenodd" d="M1680.32 477.848C1705.55 523.473 1808.02 542.959 1824.99 543.652C1841.97 544.346 1799.53 519.702 1789.38 516.469C1783.89 514.7 1776.55 513.165 1768.33 511.447L1768.33 511.447L1768.33 511.446L1768.33 511.446C1737.82 505.068 1695.27 496.173 1690.75 463.441L1690.74 463.387C1774.58 411.158 1835.52 343.435 1832.69 295.427C1830.84 264.317 1820.74 209.976 1750.96 265.246C1734.21 278.408 1712.42 314.831 1712.42 314.831C1712.42 314.831 1675.15 391.152 1673.94 444.635C1653.61 457.944 1633.09 468.73 1613.74 475.562C1547.45 499.035 1469.09 468.069 1458.74 429.299C1457.15 423.384 1457.69 415.324 1459.92 405.689C1550.92 406.335 1610.7 364.268 1649.41 335.598C1700.96 297.226 1771.95 163.288 1765.63 133.418C1754.47 79.3643 1729.62 73.9576 1701.79 80.4301C1658.18 90.6544 1625.16 117.959 1593.07 149.714C1570.5 174.31 1473.52 300.528 1450.51 386.862C1345.22 387.973 1244.98 326.409 1194.91 288.781C1104.72 221.015 1061.22 147.905 1078.03 -14.8888C1094.85 -177.682 1238.06 -348.493 1312.14 -397.54C1414.26 -464.893 1423.72 -400.088 1423.72 -400.088L1447.01 -384.836L1457.09 -406.303C1445.46 -422.492 1429.53 -435.429 1411.74 -443.122C1366.87 -461.008 1310.32 -441.31 1213.03 -339.933C1120.2 -242.847 1065.93 -89.0752 1054.82 53.2709C1043.7 195.617 1111.86 273.824 1284.7 358.98C1347.08 389.676 1400.67 402.923 1446.68 405.298C1444.44 421.085 1445.55 434.894 1451.14 445.626C1480.51 501.831 1560.89 530.542 1639.16 492.024C1652.27 485.584 1665.08 478.682 1677.46 471.421C1678.26 473.692 1679.21 475.84 1680.32 477.848ZM1775.12 274.146C1755.67 287.516 1729.71 325.964 1729.71 325.964C1729.71 325.964 1701.83 385.802 1692.93 431.428C1747.5 391.314 1797.45 335.844 1815.27 293.765C1829.28 260.636 1809.77 249.939 1775.12 274.146ZM1729.8 91.0146C1759 104.493 1771.05 132.395 1644.99 287.515C1590.31 354.777 1527.59 381.929 1465.85 386.248C1491.96 314.525 1574.37 193.907 1601.12 167.439C1624.51 144.302 1700.59 77.5364 1729.8 91.0146Z" fill="#D43D65"/>
</svg>
