<svg width="335" height="153" viewBox="0 0 335 153" fill="none" xmlns="http://www.w3.org/2000/svg">
<path d="M101.465 102.131C100.717 102.131 99.9162 101.971 99.0619 101.651C98.2076 101.331 97.5135 100.931 96.9796 100.451C96.4456 99.9176 96.1787 99.3042 96.1787 98.6107C96.1787 98.4507 96.2054 98.2106 96.2588 97.8906L112.196 46.0409C112.517 45.0807 113.184 44.3606 114.199 43.8805C115.267 43.4004 116.388 43.1604 117.562 43.1604C118.79 43.1604 119.912 43.4004 120.926 43.8805C121.994 44.3606 122.688 45.0807 123.008 46.0409L137.946 94.8826L138.866 97.8906C138.973 98.2106 139.026 98.4507 139.026 98.6107C139.026 99.1654 138.806 99.68 138.365 100.155C138.297 100.228 138.224 100.3 138.145 100.371C137.611 100.904 136.917 101.331 136.063 101.651C135.262 101.971 134.461 102.131 133.66 102.131C132.966 102.131 132.352 101.998 131.818 101.731C131.338 101.465 130.991 101.011 130.777 100.371L127.493 89.0089H107.631L104.428 100.371C104.268 101.011 103.894 101.465 103.307 101.731C102.773 101.998 102.159 102.131 101.465 102.131ZM109.554 82.2077H125.571L117.562 54.7625L109.554 82.2077Z" fill="#F8F8F8"/>
<path d="M149.344 102.131C148.169 102.131 147.182 101.838 146.381 101.251C146.185 101.098 146.015 100.94 145.87 100.779C145.463 100.325 145.26 99.8427 145.26 99.3308V66.9248C145.26 66.1246 145.633 65.4845 146.381 65.0044C146.594 64.8626 146.82 64.7397 147.059 64.6356C147.72 64.348 148.482 64.2043 149.344 64.2043C150.412 64.2043 151.32 64.471 152.067 65.0044C152.815 65.4845 153.188 66.1246 153.188 66.9248V70.4454C153.776 69.3252 154.55 68.2584 155.511 67.2448C156.525 66.2313 157.7 65.4045 159.035 64.7644C160.37 64.0709 161.811 63.7242 163.36 63.7242H165.923C166.777 63.7242 167.524 64.0976 168.165 64.8444C168.806 65.5378 169.126 66.3913 169.126 67.4049C169.126 68.4184 168.806 69.2986 168.165 70.0454C167.524 70.7922 166.777 71.1656 165.923 71.1656H163.36C161.758 71.1656 160.209 71.6457 158.714 72.6058C157.22 73.566 155.991 74.9263 155.03 76.6866C154.123 78.3936 153.669 80.474 153.669 82.9278V99.3308C153.669 100.024 153.242 100.664 152.387 101.251C151.587 101.838 150.572 102.131 149.344 102.131Z" fill="#F8F8F8"/>
<path fill-rule="evenodd" clip-rule="evenodd" d="M138.866 97.8906C138.973 98.2106 139.026 98.4507 139.026 98.6107C139.026 99.1654 138.806 99.68 138.365 100.155C138.88 105.22 139.72 110.131 140.971 114.712C96.9308 119.12 40.758 99.4978 22.24 86.9069L0 83.6151C18.945 96.7822 42.8094 113.134 70.7806 118.934C102.085 125.416 126.072 126.635 144.666 124.7C147.29 130.064 150.785 134.574 155.362 137.8C179.361 154.687 225.532 159.445 247.732 142.051C251.454 139.141 254.952 136.097 258.203 132.959C259.022 133.664 259.872 134.319 260.753 134.919C280.779 148.545 325.346 148.94 332.165 148.165C338.985 147.391 316.854 141.736 312.151 141.265C300.135 140.033 272.776 143.285 261.308 129.856L261.289 129.875C270.192 120.664 276.967 110.79 281.028 101.257C286.776 87.7641 287.087 74.9526 280.296 65.6658C280.245 65.596 280.194 65.5265 280.142 65.4572C272.52 55.2574 256.504 37.8482 241.351 60.2911C237.692 65.6435 237.212 79.0016 237.212 79.0016C237.212 79.0016 238.649 96.2939 244.922 112.326C245.071 112.266 245.221 112.202 245.372 112.133C246.6 111.653 247.775 110.853 248.896 109.733C249.814 108.9 250.617 107.888 251.306 106.697C248.742 97.3815 247.344 88.3189 246.777 84.1113L244.761 79.4871L240.087 68.7651C239.873 68.3917 239.766 68.0183 239.766 67.6449C239.766 66.9515 240.06 66.3114 240.647 65.7246C241.288 65.0845 242.035 64.5777 242.89 64.2043C243.744 63.8309 244.545 63.6442 245.292 63.6442C245.826 63.6442 246.333 63.7775 246.814 64.0443C247.348 64.2576 247.695 64.631 247.855 65.1645L249.285 68.8488C250.197 66.1226 251.359 63.5464 252.812 61.8111C260.829 52.0153 270.54 54.0087 272.765 64.9881C272.828 65.2971 272.884 65.6132 272.935 65.9363C273.214 67.7318 273.355 69.618 273.365 71.5759C273.441 85.9735 266.45 104.248 255.414 118.791C255.042 117.912 254.684 117.015 254.338 116.105C253.872 116.553 253.373 116.97 252.843 117.356C252.379 117.693 251.891 118.006 251.379 118.294C250.433 118.866 249.372 119.305 248.194 119.61C249.028 121.224 249.922 122.792 250.881 124.291C245.85 129.904 240.183 134.691 234.099 138.1C213.268 149.8 167.39 144.174 154.726 131.94C152.791 130.074 151.217 127.371 149.956 124.046C178.999 119.862 193.806 107.615 203.085 96.8465C205.228 94.3592 207.077 91.9508 208.738 89.7389L208.834 89.6105C214.596 81.8711 217.091 66.2225 217.06 51.1688C217.055 48.6301 216.978 46.1083 216.832 43.6442C216.084 30.957 213.526 19.7996 209.645 15.7397C193.274 -1.51136 182.315 -1.8328 172.821 1.95815C157.959 7.92639 151.048 18.9273 145.486 31.3481C141.167 40.9924 136.379 68.0259 137.946 94.8826L138.866 97.8906ZM152.579 36.7454C156.632 27.6953 171.707 1.07048 186.167 3.80882C198.628 6.16873 208.461 12.8324 201.267 52.3027C200.786 54.9402 200.229 57.7241 199.592 60.6631C198.701 64.777 197.652 69.1946 196.433 73.9392C194.263 82.3812 190.582 89.2889 185.729 94.8737C183.817 97.073 181.724 99.067 179.47 100.869C170.757 107.834 159.637 111.927 147.306 113.895C146.598 109.851 146.134 105.418 145.87 100.779C145.463 100.325 145.26 99.8427 145.26 99.3308V66.9248C145.26 66.1246 145.633 65.4845 146.381 65.0044C146.594 64.8626 146.82 64.7397 147.059 64.6356C148.444 51.8577 150.601 41.1624 152.579 36.7454Z" fill="#D43D65"/>
<path d="M172.98 89.649C172.98 93.9699 174.181 97.1438 176.584 99.1708C177.417 99.8557 178.38 100.422 179.47 100.869C181.724 99.067 183.817 97.073 185.729 94.8737C184.306 94.738 183.26 94.3567 182.59 93.7298C181.789 92.9297 181.389 91.5694 181.389 89.649V70.4455H191.16C191.907 70.4455 192.468 70.1254 192.842 69.4853C193.269 68.8452 193.482 68.125 193.482 67.3249C193.482 66.5247 193.269 65.8046 192.842 65.1645C192.468 64.5243 191.907 64.2043 191.16 64.2043H181.389V49.5616C181.389 48.7614 180.935 48.1213 180.027 47.6412C179.12 47.1078 178.159 46.841 177.144 46.841C176.13 46.841 175.169 47.1078 174.261 47.6412C173.407 48.1213 172.98 48.7614 172.98 49.5616V89.649Z" fill="#F8F8F8"/>
<path d="M208.313 100.851C211.036 102.025 214.106 102.611 217.523 102.611C220.886 102.611 223.93 102.025 226.653 100.851C229.376 99.6776 231.538 97.7839 233.14 95.1701C234.742 92.5563 235.543 89.0889 235.543 84.7681V74.2862C235.543 73.486 235.302 72.8192 234.822 72.2858C234.341 71.699 233.647 71.4056 232.74 71.4056H218.964C218.11 71.4056 217.443 71.779 216.962 72.5258C216.482 73.2193 216.241 73.9661 216.241 74.7663C216.241 75.6731 216.482 76.4733 216.962 77.1667C217.443 77.8602 218.11 78.2069 218.964 78.2069H227.053V84.7681C227.053 88.2888 226.199 90.9026 224.49 92.6096C222.782 94.2632 220.459 95.0901 217.523 95.0901C214.533 95.0901 212.183 94.2632 210.475 92.6096C209.727 91.838 209.148 90.8811 208.738 89.7389C207.077 91.9508 205.228 94.3592 203.085 96.8465C204.509 98.6104 206.252 99.9453 208.313 100.851Z" fill="#1F487E"/>
<path d="M226.813 45.4808C224.09 44.2539 220.913 43.6405 217.282 43.6405C217.132 43.6405 216.982 43.6417 216.832 43.6442C216.978 46.1083 217.055 48.6301 217.06 51.1688C217.212 51.1642 217.367 51.1619 217.523 51.1619C219.872 51.1619 221.714 51.5619 223.049 52.3621C224.384 53.1089 225.345 54.1491 225.932 55.4827C226.519 56.7629 226.893 58.1765 227.053 59.7235C227.107 60.7903 227.534 61.5371 228.335 61.9639C229.189 62.3373 230.177 62.524 231.298 62.524C232.686 62.524 233.727 62.2573 234.422 61.7238C235.169 61.1371 235.543 60.0435 235.543 58.4432C235.543 55.4026 234.769 52.7888 233.22 50.6017C231.672 48.4147 229.536 46.7077 226.813 45.4808Z" fill="#1F487E"/>
<path d="M199.592 60.6631C199.671 57.3472 200.229 54.5603 201.267 52.3027C200.786 54.9402 200.229 57.7241 199.592 60.6631Z" fill="#1F487E"/>
<path d="M240.968 119.415C241.715 119.895 242.623 120.135 243.691 120.135C245.344 120.135 246.845 119.96 248.194 119.61C249.372 119.305 250.433 118.866 251.379 118.294C251.891 118.006 252.379 117.693 252.843 117.356C253.373 116.97 253.872 116.553 254.338 116.105C255.123 115.351 255.819 114.507 256.425 113.574C257.759 111.6 258.881 109.413 259.788 107.012C260.696 104.665 261.577 102.345 262.431 100.051L273.365 71.5759C273.355 69.618 273.214 67.7318 272.935 65.9363C272.884 65.6132 272.828 65.2971 272.765 64.9881C272.329 64.682 271.847 64.4208 271.321 64.2043C270.467 63.8309 269.719 63.6442 269.079 63.6442C268.598 63.6442 268.118 63.7775 267.637 64.0443C267.157 64.2576 266.836 64.631 266.676 65.1645L257.946 91.1693L250.401 71.7257L249.285 68.8488L247.855 65.1645C247.695 64.631 247.348 64.2576 246.814 64.0443C246.333 63.7775 245.826 63.6442 245.292 63.6442C244.545 63.6442 243.744 63.8309 242.89 64.2043C242.035 64.5777 241.288 65.0845 240.647 65.7246C240.06 66.3114 239.766 66.9515 239.766 67.6449C239.766 68.0183 239.873 68.3917 240.087 68.7651L244.761 79.4871L246.777 84.1113L247.855 86.5843L253.622 99.811C253.301 102.051 252.714 103.998 251.86 105.652C251.684 106.014 251.5 106.363 251.306 106.697C250.617 107.888 249.814 108.9 248.896 109.733C247.775 110.853 246.6 111.653 245.372 112.133C245.221 112.202 245.071 112.266 244.922 112.326C243.917 112.731 242.972 112.933 242.089 112.933C241.234 112.933 240.647 113.28 240.327 113.974C240.006 114.72 239.846 115.574 239.846 116.534C239.846 118.028 240.22 118.988 240.968 119.415Z" fill="#1F487E"/>
<path d="M284.063 64.2043C282.835 64.2043 281.821 64.471 281.02 65.0044C280.718 65.1987 280.476 65.4191 280.296 65.6658C287.087 74.9526 286.776 87.7641 281.028 101.257C281.828 101.84 282.84 102.131 284.063 102.131C285.238 102.131 286.226 101.838 287.027 101.251C287.881 100.664 288.308 100.024 288.308 99.3309V79.4871C288.308 77.6735 288.655 76.1532 289.349 74.9263C290.097 73.6994 291.031 72.7659 292.152 72.1258C293.327 71.4856 294.528 71.1656 295.756 71.1656C297.091 71.1656 298.319 71.5123 299.441 72.2058C300.562 72.8459 301.469 73.7794 302.164 75.0063C302.858 76.2332 303.205 77.7001 303.205 79.4071V99.4109C303.205 100.371 303.659 101.065 304.566 101.491C305.474 101.918 306.408 102.131 307.369 102.131C308.437 102.131 309.398 101.918 310.253 101.491C311.16 101.065 311.614 100.371 311.614 99.4109V79.3271C311.614 77.5668 311.988 76.0998 312.735 74.9263C313.483 73.6994 314.417 72.7659 315.538 72.1258C316.66 71.4323 317.861 71.0856 319.142 71.0856C320.37 71.0856 321.545 71.4056 322.666 72.0458C323.841 72.6859 324.775 73.6461 325.469 74.9263C326.217 76.1532 326.591 77.6735 326.591 79.4871V99.3309C326.591 100.024 326.991 100.664 327.792 101.251C328.646 101.838 329.634 102.131 330.755 102.131C331.93 102.131 332.918 101.838 333.719 101.251C334.573 100.664 335 100.024 335 99.3309V79.4871C335 76.1265 334.333 73.2727 332.998 70.9255C331.663 68.5784 329.928 66.7914 327.792 65.5645C325.71 64.3376 323.467 63.7242 321.065 63.7242C318.769 63.7242 316.526 64.391 314.337 65.7246C312.148 67.0048 310.359 69.0052 308.971 71.7257C308.063 69.3786 306.675 67.4582 304.806 65.9646C302.991 64.471 300.882 63.7242 298.479 63.7242C295.81 63.7242 293.594 64.3643 291.832 65.6446C290.07 66.8715 288.735 68.2584 287.828 69.8053V66.9248C287.828 66.1246 287.454 65.4845 286.706 65.0044C285.959 64.471 285.078 64.2043 284.063 64.2043Z" fill="#1F487E"/>
</svg>
